<svg aria-hidden="true" style="position: absolute; width: 0; height: 0; overflow: hidden;" version="1.1" xmlns="http://www.w3.org/2000/svg" xmlns:xlink="http://www.w3.org/1999/xlink">
<defs>
<symbol id="icon-gradient-left-blue-bottom-min" viewBox="0 0 22 32">
<path fill="#c8ff82" style="fill: var(--color1, #c8ff82)" opacity="0.3" d="M15.538 16.614c-0.521 1.636-1.713 2.888-2.793 4.222-0.93 1.15-1.922 2.175-3.103 3.064-1.316 0.99-2.557 2.369-4.202 2.434-1.65 0.066-3.036-1.158-4.399-2.091-1.282-0.877-2.194-2.086-3.299-3.179-1.512-1.495-4.122-2.343-4.418-4.45-0.286-2.037 1.79-3.618 3.058-5.236 1.124-1.434 2.378-2.705 3.921-3.672 1.585-0.993 3.287-2.277 5.137-2.005 1.847 0.272 2.632 2.63 4.333 3.398 1.984 0.896 4.94-0.34 6.265 1.388 1.268 1.653 0.131 4.141-0.502 6.127z"></path>
</symbol>
<symbol id="icon-gradient-left-blue-top-min" viewBox="0 0 21 32">
<path fill="#82ffe8" style="fill: var(--color2, #82ffe8)" opacity="0.3" d="M14.216 16.614c-0.521 1.636-1.713 2.888-2.793 4.222-0.93 1.15-1.922 2.175-3.103 3.064-1.316 0.99-2.557 2.369-4.202 2.434-1.65 0.066-3.036-1.158-4.399-2.091-1.282-0.877-2.194-2.086-3.299-3.179-1.512-1.495-4.122-2.343-4.418-4.45-0.286-2.037 1.79-3.618 3.058-5.236 1.124-1.434 2.378-2.705 3.921-3.672 1.585-0.993 3.287-2.277 5.137-2.005 1.847 0.272 2.632 2.63 4.333 3.398 1.984 0.896 4.94-0.34 6.265 1.388 1.268 1.653 0.131 4.141-0.502 6.127z"></path>
</symbol>
<symbol id="icon-gradient-right-blue-bottom-min" viewBox="0 0 48 32">
<path fill="#b9ff82" style="fill: var(--color3, #b9ff82)" opacity="0.3" d="M42.802 25.484c-0.799 2.51-2.628 4.43-4.284 6.477-1.427 1.764-2.948 3.336-4.76 4.699-2.018 1.519-3.922 3.633-6.445 3.734-2.531 0.101-4.657-1.777-6.748-3.208-1.966-1.346-3.366-3.2-5.061-4.876-2.32-2.293-6.323-3.594-6.776-6.826-0.439-3.124 2.746-5.549 4.69-8.032 1.724-2.2 3.648-4.149 6.015-5.633 2.431-1.523 5.042-3.493 7.879-3.075 2.833 0.417 4.037 4.034 6.647 5.212 3.043 1.374 7.578-0.521 9.611 2.129 1.945 2.536 0.2 6.351-0.769 9.398z"></path>
</symbol>
<symbol id="icon-gradient-right-blue-top-min" viewBox="0 0 26 32">
<path fill="#82bbff" style="fill: var(--color4, #82bbff)" opacity="0.3" d="M37.315 22.217c-0.697 2.188-2.291 3.862-3.735 5.646-1.244 1.537-2.57 2.908-4.15 4.097-1.76 1.324-3.419 3.168-5.619 3.255-2.207 0.088-4.060-1.549-5.883-2.797-1.714-1.173-2.934-2.79-4.412-4.251-2.022-1.999-5.512-3.133-5.908-5.951-0.382-2.724 2.394-4.838 4.089-7.002 1.503-1.918 3.18-3.617 5.244-4.91 2.119-1.328 4.396-3.045 6.869-2.681 2.47 0.363 3.52 3.516 5.795 4.544 2.653 1.198 6.606-0.454 8.379 1.856 1.696 2.211 0.175 5.537-0.671 8.193z"></path>
</symbol>
<symbol id="icon-gradient-right-pink-bottom-min" viewBox="0 0 22 32">
<path fill="#fffa82" style="fill: var(--color5, #fffa82)" opacity="0.3" d="M27.904 16.614c-0.521 1.636-1.713 2.888-2.793 4.222-0.93 1.15-1.922 2.175-3.103 3.064-1.316 0.99-2.557 2.369-4.201 2.434-1.65 0.066-3.036-1.158-4.399-2.091-1.282-0.877-2.194-2.086-3.299-3.179-1.512-1.495-4.122-2.343-4.418-4.45-0.286-2.037 1.79-3.618 3.058-5.236 1.124-1.434 2.378-2.705 3.921-3.672 1.585-0.993 3.287-2.277 5.137-2.005 1.847 0.272 2.632 2.63 4.333 3.398 1.984 0.896 4.94-0.34 6.265 1.388 1.268 1.653 0.131 4.141-0.502 6.127z"></path>
</symbol>
<symbol id="icon-gradient-right-pink-top-min" viewBox="0 0 25 32">
<path fill="#ff9882" style="fill: var(--color6, #ff9882)" opacity="0.3" d="M27.904 16.614c-0.521 1.636-1.713 2.888-2.793 4.222-0.93 1.15-1.922 2.175-3.103 3.064-1.316 0.99-2.557 2.369-4.201 2.434-1.65 0.066-3.036-1.158-4.399-2.091-1.282-0.877-2.194-2.086-3.299-3.179-1.512-1.495-4.122-2.343-4.418-4.45-0.286-2.037 1.79-3.618 3.058-5.236 1.124-1.434 2.378-2.705 3.921-3.672 1.585-0.993 3.287-2.277 5.137-2.005 1.847 0.272 2.632 2.63 4.333 3.398 1.984 0.896 4.94-0.34 6.265 1.388 1.268 1.653 0.131 4.141-0.502 6.127z"></path>
</symbol>
<symbol id="icon-instagram-min" viewBox="0 0 32 32">
<path fill="#3c4563" style="fill: var(--color7, #3c4563)" d="M15.995 10.664c-2.944 0.007-5.328 2.392-5.334 5.335v0.001c0.006 2.944 2.391 5.329 5.334 5.336h0.001c2.944-0.006 5.33-2.392 5.336-5.335v-0.001c-0.006-2.944-2.392-5.33-5.335-5.336h-0.001zM32 16c0-2.208 0.019-4.4-0.104-6.605-0.125-2.56-0.709-4.835-2.582-6.709-1.878-1.877-4.146-2.458-6.71-2.581-2.208-0.125-4.398-0.106-6.603-0.106-2.21 0-4.4-0.019-6.605 0.106-2.562 0.123-4.835 0.709-6.707 2.581-1.878 1.878-2.459 4.147-2.582 6.709-0.125 2.21-0.106 4.4-0.106 6.605s-0.021 4.4 0.104 6.605c0.123 2.56 0.709 4.835 2.581 6.709 1.878 1.877 4.147 2.458 6.709 2.581 2.211 0.125 4.402 0.106 6.606 0.106 2.208 0 4.4 0.021 6.603-0.104 2.563-0.123 4.835-0.709 6.709-2.581 1.878-1.878 2.458-4.147 2.582-6.709 0.128-2.206 0.104-4.395 0.104-6.605zM15.995 24.21c-0.003 0-0.006 0-0.010 0-4.528 0-8.198-3.671-8.198-8.198 0-0.004 0-0.008 0-0.012v0.001c0-0.003 0-0.007 0-0.011 0-4.528 3.671-8.198 8.198-8.198 0.003 0 0.007 0 0.010 0h-0.001c4.544 0 8.21 3.667 8.21 8.21 0 0.003 0 0.007 0 0.011 0 4.528-3.671 8.198-8.198 8.198-0.003 0-0.007 0-0.010 0h0.001zM24.541 9.371c-0 0-0.001 0-0.002 0-1.058 0-1.915-0.857-1.915-1.915v0c0-1.061 0.856-1.917 1.917-1.917 0.002 0 0.004 0 0.007 0 1.058 0 1.915 0.857 1.915 1.915 0 0.531-0.216 1.011-0.565 1.358l-0 0c-0.346 0.346-0.824 0.56-1.353 0.56-0.001 0-0.003 0-0.004 0h0z"></path>
</symbol>
<symbol id="icon-email-min" viewBox="0 0 40 32">
<path fill="#3b82f6" style="fill: var(--color8, #3b82f6)" d="M34 0h-28c-3.314 0-6 2.686-6 6v0 20c0 3.314 2.686 6 6 6v0h28c3.314 0 6-2.686 6-6v0-20c0-3.314-2.686-6-6-6v0zM34 4l-13 8.94c-0.287 0.168-0.632 0.268-1 0.268s-0.713-0.1-1.009-0.273l0.009 0.005-13-8.94h28z"></path>
</symbol>
<symbol id="icon-facebook-min" viewBox="0 0 21 32">
<path fill="#3c4563" style="fill: var(--color7, #3c4563)" d="M5.31 32v-15.016h-5.31v-5.405h5.31v-4.619c0-3.627 3.136-6.96 10.363-6.96 2.926 0 5.090 0.21 5.090 0.21l-0.171 5.048s-2.206-0.016-4.614-0.016c-2.606 0-3.024 0.899-3.024 2.389v3.949h7.846l-0.341 5.405h-7.504v15.016h-7.646z"></path>
</symbol>
<symbol id="icon-logo-min" viewBox="0 0 32 32">
<path fill="#f59e0b" style="fill: var(--color9, #f59e0b)" d="M0 3.556c0-1.964 1.592-3.556 3.556-3.556v0h21.333c1.964 0 3.556 1.592 3.556 3.556v0 3.556c0 11.782-9.551 21.333-21.333 21.333h-3.556c-1.964 0-3.556-1.592-3.556-3.556v0-21.333z"></path>
<path fill="#4be4c9" style="fill: var(--color10, #4be4c9)" d="M3.556 7.111c0-1.964 1.592-3.556 3.556-3.556v0h21.333c1.964 0 3.556 1.592 3.556 3.556v0 3.556c0 11.782-9.551 21.333-21.333 21.333h-3.556c-1.964 0-3.556-1.592-3.556-3.556v0-21.333z"></path>
</symbol>
<symbol id="icon-star-min" viewBox="0 0 32 32">
<path fill="#f59e0b" style="fill: var(--color9, #f59e0b)" d="M31.473 11.612c-0.201-0.581-0.721-1-1.345-1.052l-0.006-0-8.868-0.704-3.837-8.495c-0.248-0.547-0.789-0.921-1.418-0.921-0.628 0-1.168 0.373-1.413 0.909l-0.004 0.010-3.836 8.497-8.868 0.704c-0.806 0.065-1.435 0.735-1.435 1.551 0 0.437 0.18 0.832 0.471 1.115l0 0 6.552 6.387-2.317 10.036c-0.026 0.106-0.040 0.227-0.040 0.351 0 0.859 0.697 1.556 1.556 1.556 0.322 0 0.621-0.098 0.87-0.266l-0.005 0.003 8.471-5.647 8.469 5.647c0.242 0.163 0.54 0.26 0.861 0.26 0.86 0 1.557-0.697 1.557-1.557 0-0.15-0.021-0.296-0.061-0.433l0.003 0.011-2.845-9.956 7.057-6.351c0.461-0.416 0.631-1.067 0.432-1.656z"></path>
</symbol>
<symbol id="icon-time-min" viewBox="0 0 32 32">
<path fill="#888b97" style="fill: var(--color11, #888b97)" d="M15.984 0c-8.832 0-15.984 7.168-15.984 16s7.152 16 15.984 16c8.848 0 16.016-7.168 16.016-16s-7.168-16-16.016-16zM22.4 22.4c-0.288 0.29-0.687 0.469-1.128 0.469s-0.84-0.179-1.128-0.469l-5.264-5.264c-0.295-0.289-0.478-0.691-0.48-1.136v-6.4c0-0.88 0.72-1.6 1.6-1.6s1.6 0.72 1.6 1.6v5.744l4.8 4.8c0.624 0.624 0.624 1.632 0 2.256z"></path>
</symbol>
<symbol id="icon-twitter-min" viewBox="0 0 38 32">
<path fill="#3c4563" style="fill: var(--color7, #3c4563)" d="M38.4 3.802c-1.32 0.608-2.851 1.047-4.457 1.241l-0.074 0.007c1.635-1.016 2.859-2.56 3.444-4.39l0.016-0.057c-1.542 0.941-3.232 1.6-4.992 1.95-0.72-0.789-1.591-1.428-2.568-1.871l-0.049-0.020c-0.918-0.418-1.991-0.662-3.12-0.662-0.004 0-0.009 0-0.013 0h0.001c-4.36 0-7.866 3.626-7.866 8.075 0 0.624 0.074 1.25 0.192 1.851-6.528-0.35-12.352-3.55-16.224-8.448-0.674 1.163-1.072 2.558-1.072 4.047 0 0.009 0 0.019 0 0.028v-0.001c0 2.803 1.39 5.274 3.509 6.728-1.317-0.056-2.536-0.43-3.595-1.047l0.037 0.020v0.099c0 3.923 2.704 7.176 6.309 7.923-0.677 0.181-1.373 0.272-2.072 0.275-0.512 0-0.997-0.053-1.488-0.123 0.998 3.2 3.901 5.525 7.357 5.6-2.642 2.149-6.048 3.451-9.758 3.451-0.004 0-0.008 0-0.012 0h0.001c-0.659 0-1.269-0.024-1.901-0.099 3.393 2.269 7.566 3.621 12.055 3.621 0.010 0 0.021 0 0.031-0h-0.002c14.472 0 22.39-12.298 22.39-22.973 0-0.35 0-0.701-0.022-1.051 1.543-1.171 2.85-2.551 3.907-4.115l0.039-0.061z"></path>
</symbol>
<symbol id="icon-apartment-min" viewBox="0 0 32 32">
<path fill="#888b97" style="fill: var(--color11, #888b97)" d="M24.889 14.222v-10.667c0-1.956-1.6-3.556-3.556-3.556h-10.667c-1.956 0-3.556 1.6-3.556 3.556v3.556h-3.556c-1.956 0-3.556 1.6-3.556 3.556v17.778c0 1.956 1.6 3.556 3.556 3.556h10.667v-7.111h3.556v7.111h10.667c1.956 0 3.556-1.6 3.556-3.556v-10.667c0-1.956-1.6-3.556-3.556-3.556h-3.556zM7.111 28.444h-3.556v-3.556h3.556v3.556zM7.111 21.333h-3.556v-3.556h3.556v3.556zM7.111 14.222h-3.556v-3.556h3.556v3.556zM14.222 21.333h-3.556v-3.556h3.556v3.556zM14.222 14.222h-3.556v-3.556h3.556v3.556zM14.222 7.111h-3.556v-3.556h3.556v3.556zM21.333 21.333h-3.556v-3.556h3.556v3.556zM21.333 14.222h-3.556v-3.556h3.556v3.556zM21.333 7.111h-3.556v-3.556h3.556v3.556zM28.444 28.444h-3.556v-3.556h3.556v3.556zM28.444 21.333h-3.556v-3.556h3.556v3.556z"></path>
</symbol>
<symbol id="icon-arrow-down-min" viewBox="0 0 59 32">
<path fill="#fff" style="fill: var(--color12, #fff)" d="M56.661 5.973c0-0.004 0-0.009 0-0.015 0-1.517-0.856-2.835-2.112-3.495l-0.022-0.010c-0.539-0.288-1.179-0.457-1.859-0.457-0.975 0-1.868 0.348-2.564 0.926l0.007-0.005-21.387 17.776-21.445-17.141c-0.679-0.549-1.553-0.882-2.505-0.882-1.25 0-2.366 0.574-3.1 1.472l-0.006 0.007c-0.615 0.695-0.99 1.614-0.99 2.62 0 1.293 0.619 2.441 1.577 3.165l0.010 0.007 23.947 19.157c0.684 0.562 1.569 0.903 2.533 0.903s1.849-0.341 2.54-0.909l-0.007 0.006 23.947-19.835c0.886-0.733 1.447-1.833 1.447-3.064 0-0.080-0.002-0.159-0.007-0.238l0.001 0.011z"></path>
</symbol>
<symbol id="icon-arrow-left-min" viewBox="0 0 16 32">
<path fill="#3c4563" style="fill: var(--color7, #3c4563)" d="M13.348 30.516c0.001 0 0.002 0 0.004 0 0.786 0 1.469-0.443 1.813-1.093l0.005-0.011c0.15-0.28 0.238-0.613 0.238-0.967 0-0.505-0.18-0.968-0.479-1.328l0.003 0.003-9.214-11.090 8.884-11.113c0.288-0.353 0.462-0.809 0.462-1.305 0-0.649-0.299-1.229-0.766-1.609l-0.004-0.003c-0.36-0.32-0.837-0.515-1.36-0.515-0.671 0-1.266 0.322-1.641 0.819l-0.004 0.005-9.931 12.416c-0.291 0.355-0.468 0.814-0.468 1.314s0.177 0.959 0.471 1.317l-0.003-0.004 10.284 12.418c0.38 0.459 0.95 0.748 1.587 0.748 0.042 0 0.084-0.001 0.125-0.004l-0.006 0z"></path>
</symbol>
<symbol id="icon-arrow-right-min" viewBox="0 0 16 32">
<path fill="#fff" style="fill: var(--color12, #fff)" d="M2.27 0.005c-0.002 0-0.004 0-0.006 0-0.866 0-1.619 0.488-1.997 1.204l-0.006 0.012c-0.165 0.308-0.261 0.674-0.261 1.062 0 0.557 0.199 1.068 0.529 1.465l-0.003-0.004 10.153 12.224-9.792 12.247c-0.316 0.389-0.508 0.89-0.508 1.437 0 0.717 0.33 1.357 0.847 1.776l0.004 0.003c0.397 0.352 0.922 0.567 1.498 0.567 0.409 0 0.792-0.108 1.124-0.298l-0.011 0.006c0.277-0.16 0.509-0.366 0.693-0.611l0.004-0.006 10.949-13.682c0.321-0.391 0.516-0.897 0.516-1.448s-0.195-1.057-0.519-1.452l0.003 0.004-11.337-13.687c-0.419-0.506-1.047-0.827-1.751-0.827-0.046 0-0.091 0.001-0.137 0.004l0.006-0z"></path>
</symbol>
<symbol id="icon-bathrooms-min" viewBox="0 0 33 32">
<path fill="#888b97" style="fill: var(--color11, #888b97)" d="M30.72 15.94h-28.107c-1.107 0-2.007 0.901-2.007 2.008s0.901 2.007 2.008 2.007h28.104c1.107 0 2.008-0.9 2.008-2.007s-0.901-2.008-2.008-2.008z"></path>
<path fill="#888b97" style="fill: var(--color11, #888b97)" d="M30.904 18.643c-0.056-0.017-0.12-0.026-0.186-0.026-0.304 0-0.56 0.204-0.64 0.482l-0.001 0.005-0.053 0.184h-26.713l-0.053-0.184c-0.082-0.283-0.339-0.486-0.643-0.486-0.369 0-0.669 0.299-0.669 0.669 0 0.065 0.009 0.128 0.027 0.188l-0.001-0.005 1.844 6.456c0.584 1.974 2.377 3.392 4.503 3.399h16.695c2.127-0.007 3.921-1.424 4.496-3.365l0.008-0.033 1.844-6.456c0.017-0.056 0.026-0.119 0.026-0.186 0-0.303-0.202-0.559-0.479-0.64l-0.005-0.001zM8.32 26.647c-0.912-0.002-1.681-0.61-1.927-1.442l-0.004-0.014-0.868-3.043c-0.020-0.061-0.032-0.132-0.032-0.205 0-0.37 0.3-0.669 0.669-0.669 0.312 0 0.575 0.214 0.649 0.503l0.001 0.005 0.867 3.043c0.084 0.285 0.347 0.485 0.645 0.485 0.357 0.016 0.639 0.309 0.639 0.669s-0.283 0.652-0.638 0.669l-0.001 0z"></path>
<path fill="#888b97" style="fill: var(--color11, #888b97)" d="M9.604 28.055c-0.087-0.044-0.189-0.069-0.297-0.069-0.261 0-0.487 0.149-0.598 0.366l-0.002 0.004-1.339 2.676c-0.038 0.082-0.060 0.177-0.060 0.278 0 0.37 0.3 0.671 0.671 0.671 0.252 0 0.472-0.139 0.587-0.345l0.002-0.003 1.337-2.677c0.044-0.087 0.070-0.19 0.070-0.299 0-0.261-0.149-0.487-0.367-0.598l-0.004-0.002zM25.965 31.032l-1.339-2.676c-0.109-0.231-0.34-0.389-0.608-0.389-0.37 0-0.669 0.3-0.669 0.669 0 0.116 0.029 0.225 0.081 0.32l1.336 2.674c0.112 0.221 0.338 0.371 0.599 0.371 0.37 0 0.67-0.3 0.67-0.67 0-0.109-0.026-0.212-0.072-0.303l0.002 0.004zM27.487 0c-0.683 0-1.325 0.267-1.808 0.749l-2.124 2.124c-0.121 0.121-0.196 0.288-0.196 0.473 0 0.37 0.3 0.669 0.669 0.669 0.185 0 0.352-0.075 0.473-0.196l2.124-2.123c0.219-0.221 0.523-0.357 0.859-0.357 0.003 0 0.006 0 0.010 0h-0c0.672 0 1.217 0.547 1.217 1.217v14.053c0.001 0.369 0.3 0.669 0.67 0.669s0.67-0.3 0.67-0.67c0-0 0-0.001 0-0.001v0-14.052c-0.002-1.412-1.148-2.556-2.56-2.556-0.001 0-0.003 0-0.004 0h0z"></path>
<path fill="#888b97" style="fill: var(--color11, #888b97)" d="M25.171 3.543l-1.339-1.339c-0.12-0.121-0.287-0.196-0.471-0.196-0.040 0-0.078 0.003-0.116 0.010l0.004-0.001-3.345 0.548c-0.319 0.056-0.559 0.33-0.559 0.661 0 0.18 0.071 0.344 0.187 0.464l-0-0 4.015 4.136c0.121 0.125 0.291 0.203 0.479 0.203 0.068 0 0.134-0.010 0.195-0.029l-0.005 0.001c0.237-0.071 0.416-0.264 0.466-0.505l0.001-0.004 0.669-3.347c0.008-0.039 0.013-0.085 0.013-0.131 0-0.184-0.074-0.351-0.194-0.472l0 0zM16.469 8.107c-0.121-0.121-0.288-0.196-0.473-0.196s-0.352 0.075-0.473 0.196v0l-1.336 1.34c-0.121 0.121-0.196 0.288-0.196 0.473 0 0.37 0.3 0.669 0.669 0.669 0.185 0 0.352-0.075 0.473-0.196l1.337-1.339c0.121-0.121 0.196-0.288 0.196-0.473s-0.075-0.352-0.196-0.473v0zM19.147 10.784c-0.121-0.121-0.288-0.196-0.473-0.196s-0.352 0.075-0.473 0.196l-1.339 1.339c-0.121 0.121-0.196 0.289-0.196 0.473 0 0.37 0.3 0.669 0.669 0.669 0.185 0 0.352-0.075 0.473-0.196l1.339-1.339c0.121-0.121 0.196-0.288 0.196-0.473s-0.075-0.352-0.196-0.473v0zM20.485 6.769c-0.121-0.121-0.288-0.196-0.473-0.196s-0.352 0.075-0.473 0.196v0l-1.339 1.337c-0.121 0.121-0.196 0.288-0.196 0.473 0 0.37 0.3 0.669 0.669 0.669 0.185 0 0.352-0.075 0.473-0.196l1.339-1.339c0.121-0.121 0.196-0.288 0.196-0.473s-0.075-0.352-0.196-0.473v0z"></path>
</symbol>
<symbol id="icon-bedrooms-min" viewBox="0 0 48 32">
<path fill="#888b97" style="fill: var(--color11, #888b97)" d="M39.6 13.54c4.542 0 8.4 3.784 8.4 8.614v7.384h-3.6v2.462h-2.4v-2.46h-36v2.46h-2.4v-2.46h-3.6v-7.386c0-4.66 3.726-8.616 8.4-8.616h31.2zM37.2 0c3.226 0 6 2.66 6 6.154v5.88c-1.034-0.6-2.275-0.955-3.599-0.958h-2.401c0-2.108-1.682-3.692-3.6-3.692h-7.2c-0.922 0-1.762 0.356-2.4 0.94-0.628-0.582-1.472-0.94-2.4-0.94h-7.2c-1.988 0-3.6 1.654-3.6 3.692h-2.4c-1.288 0-2.508 0.344-3.6 0.958v-5.88c0-3.31 2.588-6.154 6-6.154h26.4zM21.6 9.846c0.652 0 1.2 0.614 1.2 1.23h-9.6c0-0.754 0.584-1.23 1.2-1.23h7.2zM33.6 9.854c0.68-0.008 1.2 0.592 1.2 1.22h-9.6c0-0.762 0.584-1.228 1.2-1.228l7.2 0.008z"></path>
</symbol>
<symbol id="icon-best-dials-min" viewBox="0 0 32 32">
<path fill="#047857" style="fill: var(--color13, #047857)" d="M26.971 8.686h-22.857v-0.914l20.114-1.609v1.609h2.743v-2.743c0-2.011-1.63-3.424-3.618-3.141l-18.361 2.624c-1.991 0.283-3.621 2.162-3.621 4.174v18.286c0 2.020 1.637 3.657 3.657 3.657v0h21.943c2.020 0 3.657-1.637 3.657-3.657v0-14.629c0-2.020-1.637-3.657-3.657-3.657v0zM24.229 21.497c-1.515 0-2.743-1.228-2.743-2.743s1.228-2.743 2.743-2.743v0c1.515 0 2.743 1.228 2.743 2.743s-1.228 2.743-2.743 2.743v0z"></path>
</symbol>
<symbol id="icon-carport-min" viewBox="0 0 32 32">
<path fill="#888b97" style="fill: var(--color11, #888b97)" d="M31.179 8.839l-13.369-8.333c-0.511-0.318-1.132-0.506-1.796-0.506-0.674 0-1.303 0.194-1.834 0.529l0.014-0.008-13.383 8.325c-0.831 0.521-1.060 1.588-0.513 2.381 0.547 0.792 1.664 1.013 2.496 0.489l13.22-8.225 13.205 8.232c0.304 0.187 0.643 0.276 0.977 0.276 0.592 0 1.169-0.276 1.515-0.784 0.541-0.797 0.301-1.86-0.533-2.376z"></path>
<path fill="#888b97" style="fill: var(--color11, #888b97)" d="M26.947 19.671c-0.096-0.589-0.596-1.034-1.202-1.044h-0.684l-0.259-2.765c-0.277-2.957-2.671-5.195-5.569-5.195h-6.465c-2.899 0-5.293 2.239-5.568 5.195l-0.259 2.765h-0.683c-0.608 0.010-1.109 0.455-1.204 1.037l-0.001 0.007-1.015 5.899c-0.023 0.129-0.036 0.279-0.036 0.431 0 0.617 0.218 1.183 0.581 1.625l-0.004-0.004c0.447 0.547 1.107 0.872 1.797 0.897v0.979c0 1.387 1.084 2.504 2.437 2.504h0.769c1.353 0 2.453-1.117 2.453-2.504v-0.963h7.936v0.961c0 1.387 1.092 2.507 2.444 2.507h0.771c1.352 0 2.445-1.12 2.445-2.507v-0.976c0.723-0.028 1.362-0.369 1.789-0.889l0.003-0.004c0.359-0.437 0.577-1.003 0.577-1.619 0-0.153-0.013-0.302-0.039-0.447l0.002 0.015-1.016-5.903zM8.52 26.257c-1.14 0-2.067-0.947-2.067-2.12 0-1.171 0.927-2.12 2.067-2.12 1.143 0 2.069 0.948 2.069 2.12 0 1.173-0.927 2.12-2.068 2.12zM9.036 18.627l0.24-2.551c0.173-1.855 1.675-3.252 3.493-3.252h0.372v0.803c-0 0.007-0 0.015-0 0.023 0 0.674 0.543 1.221 1.216 1.227h3.286c0.679 0 1.227-0.555 1.227-1.249v-0.801h0.364c1.817 0 3.32 1.396 3.492 3.251l0.24 2.552h-13.929zM23.477 26.257c-1.141 0-2.067-0.947-2.067-2.12 0-1.171 0.925-2.12 2.067-2.12 1.143 0 2.068 0.948 2.068 2.12 0 1.173-0.925 2.12-2.067 2.12z"></path>
</symbol>
<symbol id="icon-fire-min" viewBox="0 0 27 32">
<path fill="#ef4444" style="fill: var(--color14, #ef4444)" d="M25.218 14.471c-0.727-1.613-1.726-2.981-2.951-4.106l-0.009-0.008-1.040-0.953c-0.051-0.046-0.118-0.074-0.192-0.074-0.125 0-0.231 0.079-0.271 0.19l-0.001 0.002-0.464 1.33c-0.29 0.837-0.823 1.691-1.577 2.53-0.037 0.039-0.088 0.064-0.146 0.069l-0.001 0c-0.006 0.001-0.012 0.001-0.018 0.001-0.052 0-0.1-0.020-0.135-0.054l0 0c-0.044-0.039-0.071-0.095-0.071-0.158 0-0.005 0-0.010 0-0.014l-0 0.001c0.133-2.149-0.51-4.574-1.92-7.214-1.161-2.194-2.779-3.904-4.8-5.097l-1.477-0.869c-0.041-0.024-0.090-0.038-0.142-0.038-0.158 0-0.286 0.128-0.286 0.286 0 0.005 0 0.011 0 0.016l-0-0.001 0.078 1.714c0.053 1.17-0.082 2.208-0.405 3.067-0.391 1.054-0.955 2.034-1.678 2.912-0.506 0.613-1.063 1.153-1.672 1.628l-0.024 0.018c-1.493 1.155-2.7 2.604-3.549 4.267l-0.033 0.071c-0.814 1.608-1.291 3.506-1.291 5.515 0 1.753 0.363 3.421 1.018 4.934l-0.031-0.080c1.312 3.003 3.673 5.345 6.611 6.598l0.082 0.031c1.435 0.619 3.106 0.978 4.861 0.978 0.010 0 0.020 0 0.029-0h-0.002c1.696 0 3.337-0.327 4.891-0.974 1.552-0.657 2.878-1.557 3.994-2.668l-0 0c2.277-2.244 3.687-5.361 3.687-8.807 0-0.004 0-0.008 0-0.011v0.001c0-1.744-0.357-3.435-1.067-5.033z"></path>
</symbol>
<symbol id="icon-floors-min" viewBox="0 0 36 32">
<path fill="#888b97" style="fill: var(--color11, #888b97)" d="M33.873 5.818h-6.336c-0.973 0-1.761 0.781-1.761 1.745v4.529h-4.575c-0.975 0-1.763 0.78-1.763 1.744v4.529h-4.573c-0.975 0-1.761 0.781-1.761 1.745v4.748h-4.796c-0.468 0-0.916 0.183-1.247 0.509-0.319 0.315-0.516 0.753-0.516 1.236 0 0 0 0 0 0v0 3.649c0 0.964 0.79 1.745 1.763 1.745h25.565c0.975 0 1.763-0.781 1.763-1.745v-22.691c0-0.964-0.788-1.745-1.763-1.745z"></path>
<path fill="#888b97" style="fill: var(--color11, #888b97)" d="M25.111 0.356c-0.223-0.221-0.529-0.357-0.868-0.357-0.328 0-0.625 0.128-0.846 0.336l0.001-0.001c-7.772 7.383-15.165 14.592-22.316 21.564-0.219 0.212-0.354 0.508-0.355 0.836v8.084c0 0.652 0.543 1.181 1.212 1.181s1.212-0.529 1.212-1.181v-7.596c7.034-6.86 14.307-13.946 21.937-21.196 0.226-0.212 0.367-0.513 0.367-0.847 0-0.322-0.131-0.614-0.344-0.824l-0-0z"></path>
</symbol>
<symbol id="icon-house-min" viewBox="0 0 30 32">
<path fill="#10b981" style="fill: var(--color15, #10b981)" d="M30.316 14.875v14.599c-0.001 0.96-0.534 1.796-1.321 2.227l-0.013 0.007c-0.364 0.197-0.775 0.298-1.189 0.293h-7.587c-0.698 0-1.263-0.566-1.263-1.263v0-7.579c0-0.698-0.566-1.263-1.263-1.263v0h-5.053c-0.698 0-1.263 0.566-1.263 1.263v0 7.579c0 0.698-0.566 1.263-1.263 1.263v0h-7.574c-0.002 0-0.005 0-0.007 0-0.75 0-1.424-0.329-1.883-0.851l-0.002-0.003c-0.394-0.453-0.633-1.049-0.633-1.701 0-0.010 0-0.020 0-0.030v0.002-14.541c0.001-0.74 0.319-1.405 0.825-1.868l0.002-0.002 12.632-11.485c0.446-0.41 1.043-0.661 1.699-0.661s1.253 0.251 1.701 0.662l-0.002-0.002 12.632 11.485c0.508 0.464 0.826 1.13 0.827 1.869v0z"></path>
</symbol>
<symbol id="icon-location-min" viewBox="0 0 26 32">
<path fill="#f59e0b" style="fill: var(--color9, #f59e0b)" d="M13.091 0c3.472 0 6.801 1.444 9.257 4.017 2.455 2.572 3.834 6.060 3.834 9.697 0 6.553-4.221 12.585-12.506 18.108-0.164 0.111-0.367 0.177-0.585 0.177s-0.42-0.066-0.588-0.179l0.004 0.002c-8.285-5.524-12.506-11.555-12.506-18.109 0-3.636 1.379-7.124 3.834-9.696 2.455-2.573 5.785-4.017 9.257-4.017zM13.091 9.143c-1.158 0-2.268 0.48-3.085 1.338-0.792 0.837-1.279 1.97-1.279 3.216 0 0.007 0 0.013 0 0.020v-0.001c0 1.212 0.46 2.375 1.279 3.232 0.817 0.858 1.927 1.338 3.085 1.338s2.268-0.48 3.085-1.338c0.792-0.837 1.279-1.97 1.279-3.216 0-0.006 0-0.012-0-0.018v0.001c0-0.005 0-0.011 0-0.018 0-1.246-0.487-2.379-1.281-3.218l0.002 0.002c-0.776-0.821-1.87-1.333-3.084-1.338h-0.001z"></path>
</symbol>
<symbol id="icon-phone-min" viewBox="0 0 26 32">
<path fill="#fff" style="fill: var(--color12, #fff)" d="M7.014 0.768c0.332-0.104 0.714-0.164 1.11-0.164 1.437 0 2.69 0.79 3.349 1.959l0.010 0.019 0.144 0.288 1.269 2.822c0.267 0.578 0.423 1.255 0.423 1.968 0 1.256-0.483 2.399-1.274 3.254l0.003-0.003-0.254 0.253-2.005 1.869c-0.36 0.342-0.090 1.664 1.218 3.926 1.173 2.035 2.131 2.986 2.6 3.037h0.083l0.101-0.019 3.936-1.203c0.252-0.080 0.543-0.126 0.844-0.126 0.858 0 1.629 0.376 2.157 0.971l0.003 0.003 0.176 0.219 2.605 3.61c0.454 0.623 0.727 1.404 0.727 2.248 0 0.979-0.367 1.873-0.97 2.551l0.003-0.004-0.234 0.24-1.042 0.989c-1.202 1.14-2.829 1.841-4.621 1.841-0.905 0-1.769-0.179-2.557-0.503l0.045 0.016c-3.715-1.498-7.091-4.92-10.157-10.23-3.074-5.325-4.349-9.965-3.779-13.939 0.367-2.482 2.046-4.498 4.298-5.34l0.046-0.015 0.37-0.123 1.376-0.414z"></path>
</symbol>
<symbol id="icon-play-min" viewBox="0 0 22 32">
<path fill="#fff" style="fill: var(--color12, #fff)" d="M21.818 16.727l-21.091-16h-0.727v30.545l21.818-14.545z"></path>
</symbol>
<symbol id="icon-villa-min" viewBox="0 0 32 32">
<path fill="#888b97" style="fill: var(--color11, #888b97)" d="M7.111 32h-5.333c-0.978 0-1.778-0.8-1.778-1.778v-20.107c0-0.747 0.444-1.404 1.138-1.671l19.556-7.52c0.19-0.075 0.41-0.119 0.64-0.119 0.982 0 1.778 0.796 1.778 1.778 0 0.004-0 0.009-0 0.013v-0.001 9.849h-14.222c-0.978 0-1.778 0.8-1.778 1.778v17.778zM24.889 16h-12.444c-0.978 0-1.778 0.8-1.778 1.778v12.444c0 0.978 0.8 1.778 1.778 1.778h7.111v-7.111c0-0.978 0.8-1.778 1.778-1.778s1.778 0.8 1.778 1.778v7.111h7.111c0.978 0 1.778-0.8 1.778-1.778v-14.222c0-1.956-1.6-3.556-3.556-3.556s-3.556 1.6-3.556 3.556z"></path>
</symbol>
</defs>
</svg>
